<?xml version="1.0" encoding="utf-8"?>
<!-- Svg Vector Icons : http://www.onlinewebfonts.com/icon -->
<!DOCTYPE svg PUBLIC "-//W3C//DTD SVG 1.1//EN" "http://www.w3.org/Graphics/SVG/1.1/DTD/svg11.dtd">
<svg version="1.1" xmlns="http://www.w3.org/2000/svg" xmlns:xlink="http://www.w3.org/1999/xlink" x="0px" y="0px" viewBox="0 0 1000 1000" enable-background="new 0 0 1000 1000" xml:space="preserve" height="16" width="16">
<metadata> Svg Vector Icons : http://www.onlinewebfonts.com/icon </metadata>
<g><g transform="translate(0.000000,511.000000) scale(0.100000,-0.100000)"><path d="M5173.9,4999.8c-184.1-45-351.9-184.1-439.9-360.1l-51.1-102.3l-6.1-1559l-6.1-1561h722.2c828.6,0,910.4-10.2,1182.5-147.3C7005,1055.2,7291.4,590.8,7291.4,108c0-482.9-288.5-949.3-718.1-1162.1c-276.2-137.1-354-147.3-1180.5-147.3h-720.2l4.1-1561l6.1-1559l51.1-102.3c63.4-130.9,186.2-253.7,317.1-317.1l102.3-51.2h2138h2138l102.3,51.2c130.9,63.4,253.7,186.2,317.1,317.1l51.2,102.3V108v4429.4l-51.2,102.3c-63.4,130.9-186.2,253.7-317.1,317.1l-102.3,51.2l-2097.1,4.1C6178.4,5012,5208.7,5008,5173.9,4999.8z"/><path d="M2518.3,2370.8c-159.6-59.3-325.3-184.1-1186.6-896.1C398.7,701.3,247.3,562.2,157.3,388.2C108.2,296.2,100,257.3,100,108c0-149.3,8.2-188.2,57.3-280.3C188-231.7,265.7-336,331.2-403.5c149.4-157.5,1849.5-1565.1,1998.9-1655.1c169.8-102.3,266-131,421.5-118.7c239.4,16.4,441.9,153.4,550.4,372.4c51.1,100.2,51.1,112.5,57.3,679.2l6.1,576.9l1395.3,6.2l1395.3,6.2l102.3,51.1c131,63.4,253.7,186.2,317.1,317.1c71.6,147.3,71.6,405.1,0,552.4c-63.4,130.9-186.2,253.7-317.1,317.1l-102.3,51.1l-1395.3,6.1l-1395.3,6.1l-6.1,576.9c-6.1,566.7-6.1,579-57.3,679.2c-63.4,130.9-188.2,255.7-315.1,317.1C2862,2397.3,2632.9,2413.7,2518.3,2370.8z"/></g></g>
</svg>
